<svg id="BYU_logo" data-name="BYU logo" xmlns="http://www.w3.org/2000/svg" width="70.792" height="20.219" viewBox="0 0 70.792 20.219">
  <path id="Path_258" data-name="Path 258" d="M168.347,74.225V70.764a2.889,2.889,0,0,0-.039-.475,3.44,3.44,0,0,0,.476.039h2.609c1.986,0,3.151.308,3.151,2.113,0,1.173-.723,2.22-3.07,2.22h-2.69a4.185,4.185,0,0,0-.468.03A4.022,4.022,0,0,0,168.347,74.225Zm0,7.944v-4a3.236,3.236,0,0,0-.032-.468,3.946,3.946,0,0,0,.468.032h2.207c1.76,0,3.914,0,3.914,2.437,0,1.8-1.542,2.437-3.618,2.437h-2.5a3.4,3.4,0,0,0-.462.035S168.347,82.4,168.347,82.169ZM162.02,68.176l0,16.668c0,.541.032.733-.351.971a3.63,3.63,0,0,1-1.376.376l-.011,0c-.062.015-.05.247.011.247h13.483c5.687,0,8.079-2.257,8.079-5.777,0-2.6-1.212-4.193-3.612-4.791a.039.039,0,0,1,0-.077c1.529-.477,2.935-1.584,2.935-4.294,0-3.674-2.482-4.919-7.9-4.919H160.3c-.062,0-.075.233-.013.248l.012,0a3.632,3.632,0,0,1,1.376.376C162.052,67.446,162.02,67.635,162.02,68.176Z" transform="translate(-160.238 -66.582)" fill="#fff"/>
  <path id="Path_259" data-name="Path 259" d="M447.213,68.176c0-.541-.032-.73.351-.968a3.631,3.631,0,0,1,1.375-.376l.011,0c.062-.015.051-.248-.011-.248h-9.945c-.062,0-.075.233-.013.248l.012,0a2.783,2.783,0,0,1,1.294.375c.382.237.351.429.351.969V78.194a3.908,3.908,0,1,1-7.812,0V68.179c0-.541-.032-.733.351-.971a2.941,2.941,0,0,1,1.294-.376l.011,0c.062-.015.05-.248-.012-.248h-9.385c-.07,0-.056.234,0,.247l.011,0a1.216,1.216,0,0,1,.79.221c.313.266.363.583.363,1.124v9.847c0,4.747,2.6,8.778,10.48,8.778s10.48-4.031,10.48-8.778Z" transform="translate(-378.201 -66.582)" fill="#fff"/>
  <path id="Path_260" data-name="Path 260" d="M298.318,86.439c.062,0,.075-.233.013-.248l-.012,0a3.621,3.621,0,0,1-1.375-.376c-.383-.237-.351-.43-.351-.97V78.517L303.47,68.3a4.928,4.928,0,0,1,.927-1.113,2.9,2.9,0,0,1,.257-.177,1.371,1.371,0,0,1,.742-.186l.011,0c.062-.008.082-.247.01-.247h-9.276c-.076,0-.06.243,0,.249a.039.039,0,0,1,.011,0c.45,0,1,0,.914.649-.052.627-2.725,4.493-3.677,5.961a1.811,1.811,0,0,0-.289.691,1.78,1.78,0,0,0-.308-.689c-1.328-1.976-3.6-5.18-3.663-5.965-.055-.67.464-.651.915-.651l.011,0c.064-.006.088-.246.012-.246h-9.741c-.058,0-.052.224.006.246l.011,0a2.573,2.573,0,0,1,1.13.251,1.779,1.779,0,0,1,.246.163A4.485,4.485,0,0,1,282.6,68.3l6.868,10.17v6.368c0,.541.032.734-.351.971a3.624,3.624,0,0,1-1.376.376l-.012,0c-.062.015-.05.248.012.248Z" transform="translate(-259.53 -66.58)" fill="#fff"/>
</svg>
