<svg xmlns="http://www.w3.org/2000/svg" width="20.749" height="20.749" viewBox="0 0 20.749 20.749">
  <path id="user-circle-o-white" d="M10.375,0A10.143,10.143,0,0,1,14.4.822a10.2,10.2,0,0,1,5.523,5.523,10.3,10.3,0,0,1,.006,8.047A10.337,10.337,0,0,1,17.728,17.7a10.506,10.506,0,0,1-3.312,2.218,10.316,10.316,0,0,1-8.084.006,10.3,10.3,0,0,1-3.305-2.218A10.569,10.569,0,0,1,.822,14.4a10.276,10.276,0,0,1,0-8.053A10.2,10.2,0,0,1,6.345.822,10.143,10.143,0,0,1,10.375,0Zm7.167,15.643a8.75,8.75,0,0,0,1.726-5.268,8.635,8.635,0,0,0-.708-3.451,9.01,9.01,0,0,0-1.9-2.836,8.933,8.933,0,0,0-2.836-1.9,8.692,8.692,0,0,0-3.451-.708,8.6,8.6,0,0,0-3.451.708,9.026,9.026,0,0,0-2.836,1.9,8.948,8.948,0,0,0-1.9,2.836,8.654,8.654,0,0,0-.708,3.451,8.75,8.75,0,0,0,1.726,5.268q.764-3.787,3.542-3.787a5,5,0,0,0,3.625,1.484A5,5,0,0,0,14,11.856Q16.778,11.856,17.541,15.643Zm-2.72-7.49a4.279,4.279,0,0,0-1.3-3.144,4.3,4.3,0,0,0-3.144-1.3,4.273,4.273,0,0,0-3.144,1.3,4.288,4.288,0,0,0-1.3,3.144,4.288,4.288,0,0,0,1.3,3.143,4.266,4.266,0,0,0,3.144,1.3,4.309,4.309,0,0,0,3.144-1.3,4.271,4.271,0,0,0,1.3-3.144Z" transform="translate(0 0)" fill="#fff"/>
</svg>
